<svg xmlns="http://www.w3.org/2000/svg" width="25" height="25" viewBox="69 56 25 25"><g data-name="Rectangle 129"><path d="M81.5 56A12.5 12.5 0 0 1 94 68.5 12.5 12.5 0 0 1 81.5 81 12.5 12.5 0 0 1 69 68.5 12.5 12.5 0 0 1 81.5 56z" fill="#fff" fill-rule="evenodd"/><path d="M81.5 59h0a9.5 9.5 0 0 1 9.5 9.5h0a9.5 9.5 0 0 1-9.5 9.5h0a9.5 9.5 0 0 1-9.5-9.5h0a9.5 9.5 0 0 1 9.5-9.5z" stroke-linejoin="round" stroke-linecap="round" stroke-width="4.5600000000000005" stroke="#19a7ce" fill="transparent"/></g></svg>