<svg xmlns="http://www.w3.org/2000/svg" width="22" height="22" viewBox="36 347 22 22"><g data-name="Rectangle 38"><path d="M41 347h12a5 5 0 0 1 5 5v12a5 5 0 0 1-5 5H41a5 5 0 0 1-5-5v-12a5 5 0 0 1 5-5z" fill="#fff" fill-rule="evenodd"/><path d="M41.41 347.75h11.18a4.66 4.66 0 0 1 4.66 4.66v11.18a4.66 4.66 0 0 1-4.66 4.66H41.41a4.66 4.66 0 0 1-4.66-4.66v-11.18a4.66 4.66 0 0 1 4.66-4.66z" stroke-linejoin="round" stroke-linecap="round" stroke-width="1.39773" stroke="#d6d5dc" fill="transparent"/></g></svg>