<svg xmlns="http://www.w3.org/2000/svg" width="22" height="22" viewBox="36 347 22 22"><g data-name="Group 178"><g data-name="Rectangle 38"><path d="M41 347h12a5 5 0 0 1 5 5v12a5 5 0 0 1-5 5H41a5 5 0 0 1-5-5v-12a5 5 0 0 1 5-5z" fill="#fff" fill-rule="evenodd"/><path d="M41.41 347.75h11.18a4.66 4.66 0 0 1 4.66 4.66v11.18a4.66 4.66 0 0 1-4.66 4.66H41.41a4.66 4.66 0 0 1-4.66-4.66v-11.18a4.66 4.66 0 0 1 4.66-4.66z" stroke-linejoin="round" stroke-linecap="round" stroke-width="1.39773" stroke="#19a7ce" fill="transparent"/></g><path d="m42.098 358.7 2.801 2.802 7.003-7.004" stroke-linejoin="round" stroke-linecap="round" stroke-width="1.5" stroke="#19a7ce" fill="transparent" data-name="9042296_check_icon"/></g></svg>