<svg xmlns="http://www.w3.org/2000/svg" width="25" height="25" viewBox="69.171 56 25 25"><g data-name="Rectangle 130"><path d="M81.67 56a12.5 12.5 0 0 1 12.5 12.5A12.5 12.5 0 0 1 81.67 81a12.5 12.5 0 0 1-12.5-12.5A12.5 12.5 0 0 1 81.67 56z" fill="#fff" fill-rule="evenodd"/><path d="M81.67 56.75h0A11.75 11.75 0 0 1 93.42 68.5h0a11.75 11.75 0 0 1-11.75 11.75h0A11.75 11.75 0 0 1 69.92 68.5h0a11.75 11.75 0 0 1 11.75-11.75z" stroke-linejoin="round" stroke-linecap="round" stroke-width="1.41" stroke="#d6d5dc" fill="transparent"/></g></svg>