<svg xmlns="http://www.w3.org/2000/svg" width="57.314" height="54.703" viewBox="313.622 314.324 28.657 27.352"><g data-name="Layer_2"><path d="M318.626 341.676c-2.735 0-2.735-2.487-2.735-2.487v-7.086c0-.995-.498-1.99-1.244-2.735l-.746-.622a.976.976 0 0 1 0-1.368l.746-.621c.746-.746 1.244-1.74 1.244-2.735v-7.211c0-2.487 2.735-2.487 2.735-2.487" stroke-linejoin="round" stroke-linecap="round" stroke-width="1.243" stroke="#d6d5dc" fill="transparent" data-name="Path 84"/><path d="M337.274 314.324s2.736 0 2.736 2.487v7.086c0 .995.497 1.99 1.243 2.735l.746.622a.976.976 0 0 1 0 1.368l-.746.621c-.746.746-1.243 1.74-1.243 2.735v7.211s0 2.487-2.736 2.487" stroke-linejoin="round" stroke-linecap="round" stroke-width="1.243" stroke="#d6d5dc" fill="transparent" data-name="Path 85"/><path d="M319.745 329.243h1.119l2.362 9.449v-19.395c0-.746.621-1.243 1.243-1.243h11.687" stroke-linejoin="round" stroke-linecap="round" stroke-width="1.243" stroke="#19a7ce" fill="transparent" data-name="Path 86"/><g data-name="Group 191"><path d="m331.058 328.995 2.487 3.605h-1.865l-1.74-2.362-1.617 2.362h-1.74l2.486-3.481-2.486-3.605h1.864l1.74 2.362 1.617-2.362h1.74l-2.486 3.48Z" fill="#19a7ce" fill-rule="evenodd" data-name="Path 87"/></g></g></svg>