<svg xmlns="http://www.w3.org/2000/svg" width="22" height="22" viewBox="0 0 22 22">
  <g id="_9042641_home_simple_door_icon" data-name="9042641_home_simple_door_icon" transform="translate(-0.719 -0.719)">
    <g id="Group_105" data-name="Group 105" transform="translate(3.181 3.664)">
      <path id="Path_24" data-name="Path 24" d="M15.074,18.557h-8.7A4.128,4.128,0,0,1,2.2,14.48V9.129a4.117,4.117,0,0,1,2-3.482L8.55,3.1a4.248,4.248,0,0,1,4.262,0l4.349,2.548a4.117,4.117,0,0,1,2,3.482V14.48A4,4,0,0,1,15.074,18.557ZM14.03,17.283h1.044a2.863,2.863,0,0,0,2.871-2.8V9.129a2.8,2.8,0,0,0-1.392-2.378L12.2,4.2a3.05,3.05,0,0,0-2.958,0L4.9,6.751A2.7,2.7,0,0,0,3.5,9.129V14.48a2.863,2.863,0,0,0,2.871,2.8H7.506v-2.8a3.306,3.306,0,0,1,6.611,0v2.8Zm-5.219,0h3.914v-2.8a2,2,0,0,0-4,0v2.8Z" transform="translate(-2.2 -2.525)" fill="#19a7ce"/>
    </g>
    <rect id="Rectangle_80" data-name="Rectangle 80" width="22" height="22" transform="translate(0.719 0.719)" fill="none"/>
  </g>
</svg>
