<svg xmlns="http://www.w3.org/2000/svg" width="15.145" height="17.679" viewBox="3.527 1.772 15.145 17.679"><g data-name="Group 271"><path d="M9.9 18.275H4.833V3.161h8.578v2.124c0 .572.49 1.144 1.062 1.144h2.206v4.248c0 .327.245.654.654.654.408 0 .653-.245.653-.654V5.367c0-.245-.081-.49-.245-.654l-.081-.081-2.533-2.533-.082-.082c-.163-.163-.408-.245-.653-.245H4.67c-.571 0-1.143.49-1.143 1.144v15.36c0 .571.49 1.143 1.143 1.143H9.9a.644.644 0 0 0 .653-.653c0-.409-.327-.49-.654-.49Z" fill="#19a7ce" fill-rule="evenodd" data-name="Path 139"/><path d="M7.448 6.43h3.268a.644.644 0 0 0 .654-.655c0-.408-.327-.571-.654-.571H7.448a.558.558 0 0 0-.572.571c0 .327.245.654.572.654Z" fill="#19a7ce" fill-rule="evenodd" data-name="Path 140"/><path d="M7.448 9.697h6.536a.644.644 0 0 0 .654-.654c0-.408-.327-.571-.654-.571H7.448a.644.644 0 0 0-.653.653c0 .409.326.572.653.572Z" fill="#19a7ce" fill-rule="evenodd" data-name="Path 141"/><path d="M9.9 11.74H7.447a.644.644 0 0 0-.653.653c0 .409.245.654.653.654H9.9a.644.644 0 0 0 .654-.654.644.644 0 0 0-.654-.653Z" fill="#19a7ce" fill-rule="evenodd" data-name="Path 142"/><path d="M18.641 15.09a.785.785 0 0 0-.735-.573l-1.307-.245-.572-1.307c-.164-.327-.409-.49-.817-.49-.409 0-.654.163-.817.49l-.572 1.307-1.307.245c-.327.082-.572.245-.736.572a.922.922 0 0 0 .245.899l.98.98-.244 1.39c-.082.326.081.653.326.898.164.082.327.163.49.163.164 0 .246 0 .41-.081l1.225-.654 1.225.654c.327.163.654.163.899-.082.245-.164.408-.572.327-.899l-.245-1.389.98-.98c.245-.245.327-.572.245-.899Zm-2.288 1.306c-.163.164-.163.327-.163.49l.163 1.063-.817-.49c-.081-.082-.163-.082-.326-.082-.164 0-.164 0-.327.081l-.817.49.163-1.061c0-.164 0-.409-.163-.49l-.735-.818.98-.163c.163 0 .408-.163.49-.327l.409-.899.408.9c.082.163.245.326.49.326l.98.163-.735.817Z" fill="#19a7ce" fill-rule="evenodd" data-name="Path 143"/></g></svg>