<svg id="_9042857_open_book_icon" data-name="9042857_open_book_icon" xmlns="http://www.w3.org/2000/svg" width="22" height="22" viewBox="0 0 22 22">
  <path id="Path_25" data-name="Path 25" d="M21.183,4.483A1.47,1.47,0,0,0,19.808,3.2H12.933a2.308,2.308,0,0,0-1.833.825A2.636,2.636,0,0,0,9.267,3.2H2.483A1.311,1.311,0,0,0,1.2,4.483V16.675a.723.723,0,0,0,.733.733H9.267A1.213,1.213,0,0,1,10.458,18.6a.723.723,0,0,0,.733.733.675.675,0,0,0,.733-.733,1.213,1.213,0,0,1,1.192-1.192H20.45a.723.723,0,0,0,.733-.733V4.483ZM10.458,16.4a2.537,2.537,0,0,0-1.192-.275h-6.6V4.667h6.6a1.213,1.213,0,0,1,1.192,1.192Zm9.167-.275H12.933a2.537,2.537,0,0,0-1.192.275V5.767a1.213,1.213,0,0,1,1.192-1.192h6.692Z" transform="translate(-0.1 -0.267)" fill="#060c3d"/>
  <rect id="Rectangle_81" data-name="Rectangle 81" width="22" height="22" fill="none"/>
</svg>
