<svg id="_9042345_calendar_icon" data-name="9042345_calendar_icon" xmlns="http://www.w3.org/2000/svg" width="22" height="22" viewBox="0 0 22 22">
  <g id="Group_111" data-name="Group 111" transform="translate(2.091 1.545)">
    <path id="Path_26" data-name="Path 26" d="M10.427,4.982h3.455V6.164a.717.717,0,0,0,.727.727.669.669,0,0,0,.727-.727V2.527a.717.717,0,0,0-.727-.727.669.669,0,0,0-.727.727V3.709H10.427a.717.717,0,0,0-.727.727C9.7,4.891,10.064,4.982,10.427,4.982Z" transform="translate(-2.973 -1.709)" fill="#060c3d"/>
    <path id="Path_27" data-name="Path 27" d="M17.482,3.609h-.455a.717.717,0,0,0-.727.727.669.669,0,0,0,.727.727h.455a1.2,1.2,0,0,1,1.182,1.182v3h-15V6.064A1.2,1.2,0,0,1,4.845,4.882H6.027V6.064a.717.717,0,0,0,.727.727.669.669,0,0,0,.727-.727V2.427A.717.717,0,0,0,6.755,1.7a.8.8,0,0,0-.818.727V3.609H4.755A2.444,2.444,0,0,0,2.3,6.064V17.882a2.541,2.541,0,0,0,2.545,2.545H17.573a2.541,2.541,0,0,0,2.545-2.545V6.064A2.668,2.668,0,0,0,17.482,3.609Zm1.182,14.273a1.2,1.2,0,0,1-1.182,1.182H4.755a1.2,1.2,0,0,1-1.182-1.182V10.336h15v7.545Z" transform="translate(-2.3 -1.7)" fill="#060c3d"/>
  </g>
  <rect id="Rectangle_82" data-name="Rectangle 82" width="22" height="22" fill="none"/>
</svg>
