<svg id="_9042380_book_education_icon" data-name="9042380_book_education_icon" xmlns="http://www.w3.org/2000/svg" width="22" height="22" viewBox="0 0 22 22">
  <g id="Group_112" data-name="Group 112" transform="translate(3.025 2.017)">
    <path id="Path_28" data-name="Path 28" d="M19.342,3.483A1.3,1.3,0,0,0,18.15,2.2H5.775A2.606,2.606,0,0,0,3.3,4.767V17.6a2.562,2.562,0,0,0,2.567,2.567H18.7a.723.723,0,0,0,.733-.733A.675.675,0,0,0,18.7,18.7H5.775a1.192,1.192,0,1,1,0-2.383H18.608a.723.723,0,0,0,.733-.733V3.483ZM17.967,15.125H5.775a2.537,2.537,0,0,0-1.192.275V4.767A1.213,1.213,0,0,1,5.775,3.575H17.967Z" transform="translate(-3.3 -2.2)" fill="#060c3d"/>
    <path id="Path_29" data-name="Path 29" d="M8.942,7.675h5.5a.723.723,0,0,0,.733-.733.65.65,0,0,0-.733-.642h-5.5a.627.627,0,0,0-.642.642A.708.708,0,0,0,8.942,7.675Z" transform="translate(-3.717 -2.542)" fill="#060c3d"/>
  </g>
  <rect id="Rectangle_83" data-name="Rectangle 83" width="22" height="22" fill="none"/>
</svg>
