<svg xmlns="http://www.w3.org/2000/svg" width="18" height="18" viewBox="0 0 18 18">
  <g id="_9042662_notes_icon" data-name="9042662_notes_icon" transform="translate(-0.001 -0.001)">
    <g id="Group_104" data-name="Group 104" transform="translate(2.475 0.675)">
      <path id="Path_20" data-name="Path 20" d="M14.4,14.3a.592.592,0,0,0-.6-.6h-6a.592.592,0,0,0-.6.6.552.552,0,0,0,.6.6h6A.645.645,0,0,0,14.4,14.3Z" transform="translate(-4.275 -4.099)" fill="#19a7ce"/>
      <path id="Path_21" data-name="Path 21" d="M7.8,10.925H9.3a.592.592,0,0,0,.6-.6A.532.532,0,0,0,9.3,9.8H7.8a.592.592,0,0,0-.6.6A.532.532,0,0,0,7.8,10.925Z" transform="translate(-4.275 -3.124)" fill="#19a7ce"/>
      <path id="Path_22" data-name="Path 22" d="M7.8,17.8a.592.592,0,0,0-.6.6.552.552,0,0,0,.6.6h3a.592.592,0,0,0,.6-.6.552.552,0,0,0-.6-.6Z" transform="translate(-4.275 -5.124)" fill="#19a7ce"/>
      <path id="Path_23" data-name="Path 23" d="M14.326,2.325H11.7a.592.592,0,0,0-.6.6.552.552,0,0,0,.6.6h2.625A.993.993,0,0,1,15.3,4.5V15.752a.993.993,0,0,1-.975.975h-9a.993.993,0,0,1-.975-.975V4.5a.993.993,0,0,1,.975-.975H7.8V4.5a.592.592,0,0,0,.6.6A.552.552,0,0,0,9,4.5v-3A.592.592,0,0,0,8.4.9c-.375,0-.6.15-.6.45v.975H5.325A2.017,2.017,0,0,0,3.3,4.35V15.6a2.1,2.1,0,0,0,2.1,2.1h9a2.1,2.1,0,0,0,2.1-2.1V4.35A2.2,2.2,0,0,0,14.326,2.325Z" transform="translate(-3.3 -0.9)" fill="#19a7ce"/>
    </g>
    <rect id="Rectangle_79" data-name="Rectangle 79" width="18" height="18" transform="translate(0.001 0.001)" fill="none"/>
  </g>
</svg>
